<svg id="Capa_1" data-name="Capa 1" viewBox="0 0 57.68 80"><defs><style>.cls-1{fill:#1a1e25;}</style></defs><path class="cls-1" d="M11.25,59.11c0-6.28-.11-12.57,0-18.85a26.49,26.49,0,0,1,7.28-18.34,19.42,19.42,0,0,1,12.66-6,20.59,20.59,0,0,1,10.54,1.62,17.94,17.94,0,0,1,3.56,2.15c.21.16.57.29.5.58s-.51.25-.79.26a19.15,19.15,0,0,0-9.68,3c-5.19,3.44-8,8.39-9.12,14.43a32,32,0,0,0-.41,5.78l0,34.79c0,1.5,0,1.49-1.51,1.49H12.45c-1.18,0-1.21,0-1.21-1.21V59.11Z" transform="translate(-11.21 0)"/><path class="cls-1" d="M54.26,58.12c0-6.47,0-12.93,0-19.39,0-5.42-.71-10.72-3.46-15.55-.1-.18-.28-.38-.08-.58s.4,0,.6,0c8.88,1.05,15.1,6.91,16.84,15.78a64.13,64.13,0,0,1,.73,12.45q0,13.95,0,27.9c0,1.26,0,1.28-1.25,1.28H55.48c-1.15,0-1.23-.07-1.23-1.23V58.12Z" transform="translate(-11.21 0)"/><path class="cls-1" d="M68.88,7.63A7.58,7.58,0,1,1,61.3,0,7.6,7.6,0,0,1,68.88,7.63Z" transform="translate(-11.21 0)"/></svg>