<svg id="Capa_1" data-name="Capa 1" viewBox="0 0 80 25.28"><defs><style>.cls-1{fill:#FFF;}</style></defs><path class="cls-1" d="M66.6,37.6V48.52a5.74,5.74,0,0,0,.1,1.09,1.8,1.8,0,0,0,.59,1s.16.09.14.17-.15.07-.24.07H60.78c-.07,0-.17,0-.2-.06s.07-.12.11-.17a2.76,2.76,0,0,0,.69-2c0-2.38,0-4.76,0-7.13,0-1.23,0-2.46,0-3.69,0-2.76,0-5.53,0-8.3a6.11,6.11,0,0,0-.06-.86,2,2,0,0,0-.68-1.23c0-.05-.13-.08-.12-.16s.13-.07.2-.08l5.57-1c.23-.05.3,0,.3.25,0,.5,0,1,0,1.49Z" transform="translate(0 -26.18)"/><path class="cls-1" d="M54.11,49.74a4.32,4.32,0,0,1-.94.56,10.3,10.3,0,0,1-3.94.9,9.08,9.08,0,0,1-4-.62A8.19,8.19,0,0,1,40.1,44a9,9,0,0,1,1-6,7.93,7.93,0,0,1,4.39-3.76A4.74,4.74,0,0,1,46.55,34c.06,0,.15,0,.19,0s0,.11-.08.15a4.69,4.69,0,0,0-1,2.84c-.09,1.54-.13,3.08-.1,4.62a21.21,21.21,0,0,0,.36,4.13,5.66,5.66,0,0,0,2.47,3.76,5.23,5.23,0,0,0,3.32.78,7.58,7.58,0,0,0,2.25-.56A.18.18,0,0,1,54.11,49.74Z" transform="translate(0 -26.18)"/><path class="cls-1" d="M23.42,34.09h3.14c.32,0,.32,0,.18.3a1.92,1.92,0,0,0-.07,1.45,9.85,9.85,0,0,0,.56,1.29c1.23,2.55,2.45,5.09,3.69,7.62a1.64,1.64,0,0,1-.06,1.62c-.76,1.37-1.49,2.76-2.24,4.14,0,.07-.05.19-.15.19s-.11-.12-.15-.2L24.48,43q-2.19-4.29-4.39-8.58c-.15-.3-.14-.32.19-.32Z" transform="translate(0 -26.18)"/><path class="cls-1" d="M78.65,34.15a2.7,2.7,0,0,1-.56.48L72.51,39a.91.91,0,0,0-.22,1.43l3.92,6c.51.78,1.05,1.55,1.55,2.33a6.71,6.71,0,0,0,1.73,1.83l.32.23c.07.07.22.11.19.23s-.17.1-.27.13a6.3,6.3,0,0,1-2.07.22,8.14,8.14,0,0,1-3-.72,5.74,5.74,0,0,1-2.37-1.91C71.05,47,70,45.14,68.88,43.25a.6.6,0,0,1,0-.47,2.09,2.09,0,0,1,.52-.84l3-3.21a6.37,6.37,0,0,0,1.27-2.12,2.32,2.32,0,0,0-.21-2c-.05-.08-.09-.16-.14-.23s-.06-.21.12-.2h5.16Z" transform="translate(0 -26.18)"/><path class="cls-1" d="M53,40.89H50.42c-.08,0-.18,0-.21-.07s.07-.12.12-.17a5,5,0,0,0,1.75-2.74,4.48,4.48,0,0,0-.69-3.34c-.1-.16-.22-.32-.33-.48S51,34,51,33.91s.12,0,.19,0a4.41,4.41,0,0,1,1.84.54,5.84,5.84,0,0,1,3.13,4.43,4.22,4.22,0,0,1,0,1.46c-.09.45-.27.6-.74.6H53Z" transform="translate(0 -26.18)"/><path class="cls-1" d="M0,44.75c0-1.81,0-3.62,0-5.43A7.65,7.65,0,0,1,2.12,34,5.62,5.62,0,0,1,5.77,32.3a6,6,0,0,1,3,.46,5.24,5.24,0,0,1,1,.62c.06,0,.17.09.15.17s-.15.07-.23.08A5.5,5.5,0,0,0,7,34.48a6.06,6.06,0,0,0-2.63,4.17,9.21,9.21,0,0,0-.12,1.66q0,5,0,10c0,.44,0,.43-.43.43H.36c-.34,0-.35,0-.35-.35V44.75Z" transform="translate(0 -26.18)"/><path class="cls-1" d="M12.41,44.47c0-1.87,0-3.73,0-5.59a8.86,8.86,0,0,0-1-4.49s-.08-.11,0-.16.11,0,.17,0a5.4,5.4,0,0,1,4.86,4.55,18.77,18.77,0,0,1,.21,3.59v8c0,.37,0,.37-.36.37h-3.5c-.34,0-.36,0-.36-.36v-6Z" transform="translate(0 -26.18)"/><path class="cls-1" d="M16.63,29.91a2.19,2.19,0,1,1-2.19-2.2A2.19,2.19,0,0,1,16.63,29.91Z" transform="translate(0 -26.18)"/><path class="cls-1" d="M32.35,34.1l.24,0h4.62c.3,0,.32,0,.17.29-1.05,1.87-2.1,3.75-3.16,5.62a.34.34,0,0,1-.16.15c0-.42.11-.83.14-1.25a5,5,0,0,0-.87-3.81,4.37,4.37,0,0,0-.68-.68A1.41,1.41,0,0,1,32.35,34.1Z" transform="translate(0 -26.18)"/></svg>